<svg xmlns="http://www.w3.org/2000/svg" width="140.134" height="95.29" viewBox="0 0 140.134 95.29">
  <g id="Group_1" data-name="Group 1" transform="translate(-184.205 -313.224)">
    <rect id="Rectangle_1" data-name="Rectangle 1" width="24.225" height="24.332" transform="translate(242.162 314.525)" fill="none" stroke="#000" stroke-miterlimit="2.613" stroke-width="2.602"/>
    <path id="Path_1" data-name="Path 1" d="M299.109,338.126l-9.335-18.7,9.335,5.078,9.335-5.078Z" transform="translate(-44.837 -2.082)" fill="#f58233" fill-rule="evenodd"/>
    <path id="Path_2" data-name="Path 2" d="M191.1,390.414a17.966,17.966,0,0,1-3.367-4.047,21.891,21.891,0,0,1-2.829-7.052,35.756,35.756,0,0,1-.7-8.313,23.244,23.244,0,0,1,.476-5.413,2.452,2.452,0,0,1,1.948-2.063,13.811,13.811,0,0,1,2.01-.062h1.692a6,6,0,0,1,1.3.053,1.255,1.255,0,0,1,1.137,1.436c-.088.423-.432,2.072-.749,3.271-.238.9-.476,1.957-.67,3.112a19.237,19.237,0,0,0-.247,4.505,16.9,16.9,0,0,0,.538,3.156,15.635,15.635,0,0,0,2.248,4.972,1.53,1.53,0,0,0,.793.653,1.17,1.17,0,0,0,.82-.212,2.96,2.96,0,0,0,1.331-1.4c1.031-2.31,1.12-6.207.952-8.684-.106-1.525-.3-3.059-.485-4.576-.1-.881-.229-2.354-.291-3.235a6.966,6.966,0,0,1,.018-2.1c.265-1.049,1.622-.943,2.512-.935.714.009,1.454.036,2.062,0a3.093,3.093,0,0,1,2.4.5,1.346,1.346,0,0,1,.229.3,6.857,6.857,0,0,1,.714,2.107c.123.564.273,1.887.388,2.848A25.68,25.68,0,0,1,204.206,381a23.3,23.3,0,0,1-5.853,9.037,15.592,15.592,0,0,1-2.733,2.1,1.921,1.921,0,0,1-1.41.273,8.449,8.449,0,0,1-3.112-1.992m20.52-26.492a2.91,2.91,0,1,1-3.235,2.891A3.091,3.091,0,0,1,211.618,363.922Zm-3.181,7.432a2.3,2.3,0,0,1,1.489-.846,9.429,9.429,0,0,1,1.366-.114,6.513,6.513,0,0,1,2.582.343,1.607,1.607,0,0,1,.441,1.587c-.1.82-.167,1.64-.22,2.469a62.748,62.748,0,0,0-.088,7.079c.044.732.071,1.481.159,2.222.326,2.662.529,4.664.7,5.563a3.529,3.529,0,0,1,.071,1.984c-.159.344-.494.7-1.375.741-.926.044-1.931.052-2.645.052a9.537,9.537,0,0,1-1.587-.052A1.751,1.751,0,0,1,207.943,391a3.9,3.9,0,0,1-.105-.582c-.2-2.609-.106-5.651-.114-8.225-.009-2.028.07-4.038.132-6.057.035-.97.044-1.921.132-2.883A3.694,3.694,0,0,1,208.437,371.353Zm10.735-2.539a9.926,9.926,0,0,0,.185-1.049c.177-1,1.058-1.446,1.948-1.825a9.863,9.863,0,0,1,2.362-.705c.7-.106,1.516-.168,1.965.441a1.229,1.229,0,0,1,.185.873,5.938,5.938,0,0,1-.4,1.446c-.132.353-.255,1.675-.343,2.045-.1.4-.07.388.467.4.415.009,1.728-.2,2.292.609a2.29,2.29,0,0,1,.212,1.278,8.359,8.359,0,0,1-.053.838c-.089.785-.247,2.019-1.349,2.213a2.185,2.185,0,0,1-1.119-.071c-.185-.062-.353-.22-.556-.2-.167.009-.37.106-.476.485a20.374,20.374,0,0,0-.212,4.726,24.75,24.75,0,0,0,.926,5.342,14.282,14.282,0,0,0,.961,2.513c.282.547.5.846.212,1.49a2.783,2.783,0,0,1-1.234,1.19c-.556.343-1.137.644-1.719.943-.635.335-2.151,1.04-3.006.4a6.185,6.185,0,0,1-1.454-3.112,29.973,29.973,0,0,1-.652-7.1c-.017-1.561.106-3.059.177-4.6.044-.916.017-1.71.026-1.807.027-.458-.246-.388-.608-.247a2,2,0,0,1-1.375.15,1.171,1.171,0,0,1-.863-1.19,7.905,7.905,0,0,1,.511-2.592c.088-.194.4-1.076,1.092-1.182.846-.194,1.472.167,1.781-.406C219.1,370.022,219.137,368.947,219.172,368.815Zm14.218,7.829a2.767,2.767,0,0,1,4.857-.142c.167.564.141.705-.52.864a16.4,16.4,0,0,0-5.853,2.23,8.037,8.037,0,0,0-3.023,3.712,7.187,7.187,0,0,0,.22,5.475,6.011,6.011,0,0,0,2.768,2.733,10.878,10.878,0,0,0,4.716.926,48.576,48.576,0,0,1,5.562-.177c3.156.326,3.464-.952,3.077-3.359a26.568,26.568,0,0,1-.2-2.777c-.106-2.46-.106-5.3-.176-7.661a9.967,9.967,0,0,0-1.005-4.558,7.891,7.891,0,0,0-4.293-3.421,10.747,10.747,0,0,0-8.33.449,3.919,3.919,0,0,0-2.168,2.768,3.679,3.679,0,0,0,.617,3.033,3.252,3.252,0,0,0,2.274,1.243C232.923,377.966,233.144,377.428,233.391,376.644Zm4.839,5.563a.378.378,0,0,1,.388.379v3.959c0,.23-.177.318-.388.353-3.447.511-4.328-2.363-2.4-3.906A3.635,3.635,0,0,1,238.23,382.207Zm44.963-5.563a2.4,2.4,0,0,1,2.741-1.5,2.441,2.441,0,0,1,2.116,1.358c.167.564.132.705-.529.864a16.463,16.463,0,0,0-5.852,2.23,8.03,8.03,0,0,0-3.023,3.712,7.188,7.188,0,0,0,.22,5.475,6.055,6.055,0,0,0,2.768,2.733,10.9,10.9,0,0,0,4.716.926,48.782,48.782,0,0,1,5.57-.177c3.147.326,3.455-.952,3.067-3.359a26.564,26.564,0,0,1-.2-2.777c-.105-2.46-.1-5.3-.176-7.661a9.95,9.95,0,0,0-1-4.558,7.923,7.923,0,0,0-4.293-3.421,10.742,10.742,0,0,0-8.33.449,3.959,3.959,0,0,0-2.177,2.768,3.747,3.747,0,0,0,.617,3.033,3.253,3.253,0,0,0,2.283,1.243C282.725,377.966,282.937,377.428,283.193,376.644Zm4.839,5.563a.37.37,0,0,1,.379.379v3.959c0,.23-.177.318-.379.353-3.455.511-4.328-2.363-2.406-3.906A3.659,3.659,0,0,1,288.031,382.207ZM247.793,370.56c.379-.026.75-.035,1.023-.079.185-.035.318-.062.343-.15a7.808,7.808,0,0,1,1.147-3.994c1.251-1.957,2.785-2.688,5.852-2.865,1.763-.106,2.256.485,2.459,1.049a3.691,3.691,0,0,1-.026,1.958c-.079.441-.194.934-.291,1.34a2.353,2.353,0,0,1-.714,1.349.77.77,0,0,1-.52.167c-.74-.062-1.163-.494-1.63.432a1.608,1.608,0,0,0-.168.67v.194c1.781-.379,3.394-.247,3.394,1.913,0,1.349-.026,2.01-.468,2.478a1.518,1.518,0,0,1-.811.467,3.061,3.061,0,0,1-1.366-.22c-1.12-.335-1.155.123-1.252,1.3a56.771,56.771,0,0,0,.529,8.56c.132,1.058.3,1.948.406,2.663.282,1.868.431,3,.431,3s.361,1.56-1.516,1.552c-1.208-.009-2.424-.026-3.147.009-1.8.1-2.362-.343-2.5-2.045-.044-.538-.1-1.437-.114-1.992-.062-1.966-.114-3.456-.114-3.456l-.026-7.044s.017-.8.009-1.428c0-.141-.018-1.164-.221-1.164a2.055,2.055,0,0,0-.625.194c-.159.071-1.067.458-1.631-.114a1.643,1.643,0,0,1-.432-1.041,5.909,5.909,0,0,1,.767-3.1A1.474,1.474,0,0,1,247.793,370.56Zm28.542,5.22a15.073,15.073,0,0,1,.767,4.964,15.419,15.419,0,0,1-.591,4.575,11.467,11.467,0,0,1-.819,2.089,10.454,10.454,0,0,1-2.16,2.866,8.083,8.083,0,0,1-5.818,2.16,9.36,9.36,0,0,1-2.794-.5,7.375,7.375,0,0,1-3.111-2.036c-2.486-2.619-3.041-5.977-3-9.037a14.939,14.939,0,0,1,.52-3.809,9.974,9.974,0,0,1,3.517-5.466,9.038,9.038,0,0,1,5.641-1.649,8.517,8.517,0,0,1,3.165.688A9.06,9.06,0,0,1,276.335,375.78Zm-5.994.846a6.609,6.609,0,0,1,.8,3.606c-.017,2.847-.979,5.316-3.261,5.386a2.593,2.593,0,0,1-2.195-1.4,5.94,5.94,0,0,1-.793-2.733,9.836,9.836,0,0,1,.4-3.95C266.066,375.215,268.737,374.219,270.341,376.626Zm28.03,15.428a2,2,0,0,1-.705-1.111,12.329,12.329,0,0,1-.273-2.777c-.044-1.464-.053-4.055-.018-6.568.035-2.609.106-5.255.273-6.982.062-.635.1-1.614.212-2.486a3.943,3.943,0,0,1,.441-1.578,1.969,1.969,0,0,1,1.384-.776,8.925,8.925,0,0,1,1.172-.115c.732-.026,1.5-.044,2.23,0a1.977,1.977,0,0,1,1.534.644,1.488,1.488,0,0,1,.106,1.322c-.079.274-.141.335-.15.335a14.367,14.367,0,0,1,2.168-.9,5.306,5.306,0,0,1,4.249.52,12.433,12.433,0,0,1,1.049.679c.458.317.4.291.855.044.441-.238,1.19-.626,1.895-.926a6.663,6.663,0,0,1,3.05-.547A6.062,6.062,0,0,1,322.8,373.8a11.1,11.1,0,0,1,1.243,3.818,20.485,20.485,0,0,1,.256,2.415c.07,2.019.035,3.968-.088,5.986-.044.67-.1,1.358-.15,1.992-.035.423-.088.864-.15,1.314-.211,1.411-.767,3.024-2.582,3.094-.317.009-.643,0-.934-.009-.458-.018-.9-.044-1.348-.026a6.064,6.064,0,0,1-1.516-.044c-.5-.114-1.084-.538-.784-1.613.176-.635.458-1.887.731-3.359a27.09,27.09,0,0,0,.52-7.1,7.869,7.869,0,0,0-.978-3.333,2.119,2.119,0,0,0-.8-.8,1.782,1.782,0,0,0-1.622,0c-.617.432-.555,1.552-.547,2.151.026,1.34.124,3.245.071,5.2-.026.979,0,2.019-.088,2.989-.089,1.137-.2,2.1-.326,2.866a3.427,3.427,0,0,1-1.252,2.618,3.05,3.05,0,0,1-1.86.467c-1.675-.035-3.006-.044-3.006-.044a1.37,1.37,0,0,1-.952-.494,2.222,2.222,0,0,1-.018-1.816c.238-.873.458-1.728.644-2.619.246-1.234.52-2.469.643-3.72.088-.917.176-1.9.2-2.874a9.123,9.123,0,0,0-.467-3.861,1.264,1.264,0,0,0-.926-.767,2.176,2.176,0,0,0-1.207.036,1.623,1.623,0,0,0-.706.459c-1.287,1.384-1.233,4.02-1.233,5.73a26.615,26.615,0,0,0,.229,3.844c.176,1.252.344,2.389.458,3.209a14.62,14.62,0,0,1,.317,1.843c0,.635-.59.961-1.331.987-.925.036-1.771.044-2.379.026A5.207,5.207,0,0,1,298.371,392.054Z" transform="translate(0 -20.781)" fill="#f58233" fill-rule="evenodd"/>
    <path id="Path_3" data-name="Path 3" d="M251.169,433.194c.6-.652,1.208-1.252,1.833-1.834-4.671-4.461-10.877-7.238-19.4-7.793-10.524,6.18-36.985,14.388-49.273.291,13.248,7.732,48.488-11.347,70,6.356,21.508-17.7,56.739,1.376,70-6.356-12.3,14.1-38.749,5.889-49.282-.291-8.515.556-14.729,3.333-19.4,7.793.626.582,1.243,1.182,1.842,1.834l-1.657,1.278c-.485-.609-.979-1.2-1.5-1.763-.52.564-1.022,1.155-1.5,1.763Z" transform="translate(-0.053 -45.822)" fill="#383336" fill-rule="evenodd"/>
    <path id="Path_4" data-name="Path 4" d="M317.417,459.635c0-1.742,1.026-4.043,2.954-4.043,1.446,0,2.146,1.1,2.146,2.519,0,1.82-1.011,3.919-2.985,3.919C318.07,462.029,317.417,460.956,317.417,459.635Zm-1.718,6.072a6.3,6.3,0,0,0,2.7.528c3.218,0,3.793-1.461,4.384-4.221l1.182-5.458c.155-.684.3-1.29.373-1.617h-.979a16.247,16.247,0,0,0-.373,1.617h-.031a2.318,2.318,0,0,0-2.565-1.8c-2.643,0-4.042,2.379-4.042,4.883,0,1.71.948,3.242,2.829,3.242a3.435,3.435,0,0,0,2.658-1.159h.031l-.124.575c-.467,1.983-1.072,3.1-3.342,3.1a4.21,4.21,0,0,1-2.425-.684Zm-8.085-2.83h1.026l.778-3.771c.373-1.819,1.29-3.514,3-3.514a1.391,1.391,0,0,1,1.524,1.523,5.926,5.926,0,0,1-.171,1.384l-.9,4.377H313.9l.886-4.191a7.957,7.957,0,0,0,.233-1.633,2.239,2.239,0,0,0-2.488-2.3,3.087,3.087,0,0,0-2.518,1.384h-.032a7.8,7.8,0,0,0,.171-1.2h-.98c-.031.389-.093.731-.186,1.26Zm.054-11.36H306.5l-.28,1.306h1.166Zm-3.5,11.36H305.2l1.679-7.938H305.85Zm.35-7.938h-1.1l-3.654,6.857h-.031l-.886-6.857h-.995l1.057,7.938h1.182Zm-7.19-3.421h-1.166l-.28,1.306h1.166Zm-3.5,11.36h1.026l1.679-7.938h-1.026Zm-3.443,0h1.026l2.488-11.67h-1.026Zm-8.784,0h1.026l1.523-7.1h1.959l.2-.84h-1.974l.124-.591c.265-1.259.544-2.488,1.71-2.488a1.827,1.827,0,0,1,.793.156l.234-.824a2.906,2.906,0,0,0-1.088-.171c-1.85,0-2.332,1.757-2.627,3.125l-.171.793H281.62l-.2.84h1.71Zm-8.092-3.118c0-2.021,1.026-4.167,3.218-4.167,1.539,0,2.207,1.088,2.207,2.581,0,1.866-1.15,4.043-3.2,4.043A2.246,2.246,0,0,1,273.513,459.759Zm-1.073-.155a3.163,3.163,0,0,0,3.172,3.46c2.736,0,4.4-2.262,4.4-4.906,0-2.052-1.135-3.405-3.156-3.405C274.166,454.752,272.44,456.944,272.44,459.6Zm-7.369-4.665h-1.555l-.217.84h1.586l-.762,3.514a13.638,13.638,0,0,0-.357,2.286c0,.855.621,1.485,1.726,1.485a2.094,2.094,0,0,0,.995-.225l.093-.84a1.653,1.653,0,0,1-.839.217.845.845,0,0,1-.9-.964,7.844,7.844,0,0,1,.234-1.554l.839-3.919h2.036l.2-.84h-2.068l.482-2.161-1.12.389Zm-7.455,7.938h1.041l.808-3.911c.3-1.431.933-3.188,2.534-3.188a2.207,2.207,0,0,1,.84.124l.233-1.042a4.576,4.576,0,0,0-.855-.109,2.585,2.585,0,0,0-2.208,1.384h-.031a7.876,7.876,0,0,0,.171-1.2h-.98a12.856,12.856,0,0,1-.217,1.415Zm-6.9-2.061c0-1.741,2.145-1.943,3.467-1.943.326,0,.637.031.964.031-.218,1.664-1.057,3.312-2.892,3.312A1.426,1.426,0,0,1,250.714,460.816Zm5.472-1.974a7.72,7.72,0,0,0,.2-1.508,2.338,2.338,0,0,0-2.612-2.581,6.493,6.493,0,0,0-2.394.529l-.109,1a5.516,5.516,0,0,1,2.347-.684,1.544,1.544,0,0,1,1.695,1.71,5.738,5.738,0,0,1-.047.793,10.363,10.363,0,0,0-1.073-.063c-1.943,0-4.555.482-4.555,2.8a2.22,2.22,0,0,0,2.27,2.231,2.956,2.956,0,0,0,2.7-1.361h.031a11.123,11.123,0,0,0-.155,1.174h.979a10.611,10.611,0,0,1,.3-1.889Zm-17.062-.5a3.148,3.148,0,0,1,2.907-2.752c1.275,0,1.818.855,1.818,2.146,0,.186-.03.388-.046.606Zm5.6.839c.047-.5.109-1,.109-1.477,0-1.8-.933-2.954-2.8-2.954-2.55,0-4.1,2.41-4.1,5.069a3.033,3.033,0,0,0,3.265,3.242,5.81,5.81,0,0,0,2.363-.427l.078-.949a5.592,5.592,0,0,1-2.316.529,2.248,2.248,0,0,1-2.41-2.394,4.252,4.252,0,0,1,.047-.638Zm-15.6,3.693h1.026l.777-3.771c.373-1.819,1.29-3.514,3-3.514a1.39,1.39,0,0,1,1.523,1.523,5.925,5.925,0,0,1-.171,1.384l-.9,4.377H235.4l.886-4.191a7.958,7.958,0,0,0,.233-1.633,2.239,2.239,0,0,0-2.487-2.3,3.088,3.088,0,0,0-2.519,1.384h-.031a7.815,7.815,0,0,0,.171-1.2h-.98c-.031.389-.093.731-.186,1.26Zm.055-11.36h-1.166l-.28,1.306h1.166Zm-3.5,11.36H226.7l1.679-7.938h-1.026Zm-4.469,0h1.026l1.523-7.1h1.959l.2-.84h-1.974l.124-.591c.264-1.259.544-2.488,1.71-2.488a1.827,1.827,0,0,1,.793.156l.233-.824a2.9,2.9,0,0,0-1.088-.171c-1.85,0-2.332,1.757-2.627,3.125l-.171.793h-1.695l-.2.84h1.71Zm-11.419-4.533a3.148,3.148,0,0,1,2.907-2.752c1.275,0,1.819.855,1.819,2.146,0,.186-.031.388-.047.606Zm5.6.839c.047-.5.109-1,.109-1.477,0-1.8-.933-2.954-2.8-2.954-2.55,0-4.1,2.41-4.1,5.069a3.033,3.033,0,0,0,3.265,3.242,5.809,5.809,0,0,0,2.363-.427l.078-.949a5.592,5.592,0,0,1-2.317.529,2.248,2.248,0,0,1-2.41-2.394,4.252,4.252,0,0,1,.047-.638Zm-15.6,3.693h1.026l.855-3.9c.358-1.679,1.213-3.39,2.923-3.39a1.39,1.39,0,0,1,1.523,1.523,5.925,5.925,0,0,1-.171,1.384l-.9,4.377h1.026l.887-4.191a7.3,7.3,0,0,0,.232-1.633,2.239,2.239,0,0,0-2.487-2.3,2.828,2.828,0,0,0-2.534,1.477h-.031l1.182-5.023h-1.026Zm-2.884-7.938h-1.554l-.218.84h1.586l-.762,3.514a13.63,13.63,0,0,0-.358,2.286c0,.855.622,1.485,1.726,1.485a2.092,2.092,0,0,0,.995-.225l.094-.84a1.655,1.655,0,0,1-.84.217.845.845,0,0,1-.9-.964,7.844,7.844,0,0,1,.233-1.554l.839-3.919h2.036l.2-.84h-2.068l.482-2.161-1.119.389Zm-7.284,4.276h3.964l.171-1.073h-3.964Z" transform="translate(-2.298 -57.972)" fill="#383336" fill-rule="evenodd"/>
    <path id="Path_5" data-name="Path 5" d="M317.417,459.635c0-1.742,1.026-4.043,2.954-4.043,1.446,0,2.146,1.1,2.146,2.519,0,1.82-1.011,3.919-2.985,3.919C318.07,462.029,317.417,460.956,317.417,459.635Zm-1.718,6.072a6.3,6.3,0,0,0,2.7.528c3.218,0,3.793-1.461,4.384-4.221l1.182-5.458c.155-.684.3-1.29.373-1.617h-.979a16.247,16.247,0,0,0-.373,1.617h-.031a2.318,2.318,0,0,0-2.565-1.8c-2.643,0-4.042,2.379-4.042,4.883,0,1.71.948,3.242,2.829,3.242a3.435,3.435,0,0,0,2.658-1.159h.031l-.124.575c-.467,1.983-1.072,3.1-3.342,3.1a4.21,4.21,0,0,1-2.425-.684Zm-8.085-2.83h1.026l.778-3.771c.373-1.819,1.29-3.514,3-3.514a1.391,1.391,0,0,1,1.524,1.523,5.926,5.926,0,0,1-.171,1.384l-.9,4.377H313.9l.886-4.191a7.957,7.957,0,0,0,.233-1.633,2.239,2.239,0,0,0-2.488-2.3,3.087,3.087,0,0,0-2.518,1.384h-.032a7.8,7.8,0,0,0,.171-1.2h-.98c-.031.389-.093.731-.186,1.26Zm.054-11.36H306.5l-.28,1.306h1.166Zm-3.5,11.36H305.2l1.679-7.938H305.85Zm.35-7.938h-1.1l-3.654,6.857h-.031l-.886-6.857h-.995l1.057,7.938h1.182Zm-7.19-3.421h-1.166l-.28,1.306h1.166Zm-3.5,11.36h1.026l1.679-7.938h-1.026Zm-3.443,0h1.026l2.488-11.67h-1.026Zm-8.784,0h1.026l1.523-7.1h1.959l.2-.84h-1.974l.124-.591c.265-1.259.544-2.488,1.71-2.488a1.827,1.827,0,0,1,.793.156l.234-.824a2.906,2.906,0,0,0-1.088-.171c-1.85,0-2.332,1.757-2.627,3.125l-.171.793H281.62l-.2.84h1.71Zm-8.092-3.118c0-2.021,1.026-4.167,3.218-4.167,1.539,0,2.207,1.088,2.207,2.581,0,1.866-1.15,4.043-3.2,4.043A2.246,2.246,0,0,1,273.513,459.759Zm-1.073-.155a3.163,3.163,0,0,0,3.172,3.46c2.736,0,4.4-2.262,4.4-4.906,0-2.052-1.135-3.405-3.156-3.405C274.166,454.752,272.44,456.944,272.44,459.6Zm-7.369-4.665h-1.555l-.217.84h1.586l-.762,3.514a13.638,13.638,0,0,0-.357,2.286c0,.855.621,1.485,1.726,1.485a2.094,2.094,0,0,0,.995-.225l.093-.84a1.653,1.653,0,0,1-.839.217.845.845,0,0,1-.9-.964,7.844,7.844,0,0,1,.234-1.554l.839-3.919h2.036l.2-.84h-2.068l.482-2.161-1.12.389Zm-7.455,7.938h1.041l.808-3.911c.3-1.431.933-3.188,2.534-3.188a2.207,2.207,0,0,1,.84.124l.233-1.042a4.576,4.576,0,0,0-.855-.109,2.585,2.585,0,0,0-2.208,1.384h-.031a7.876,7.876,0,0,0,.171-1.2h-.98a12.856,12.856,0,0,1-.217,1.415Zm-6.9-2.061c0-1.741,2.145-1.943,3.467-1.943.326,0,.637.031.964.031-.218,1.664-1.057,3.312-2.892,3.312A1.426,1.426,0,0,1,250.714,460.816Zm5.472-1.974a7.72,7.72,0,0,0,.2-1.508,2.338,2.338,0,0,0-2.612-2.581,6.493,6.493,0,0,0-2.394.529l-.109,1a5.516,5.516,0,0,1,2.347-.684,1.544,1.544,0,0,1,1.695,1.71,5.738,5.738,0,0,1-.047.793,10.363,10.363,0,0,0-1.073-.063c-1.943,0-4.555.482-4.555,2.8a2.22,2.22,0,0,0,2.27,2.231,2.956,2.956,0,0,0,2.7-1.361h.031a11.123,11.123,0,0,0-.155,1.174h.979a10.611,10.611,0,0,1,.3-1.889Zm-17.062-.5a3.148,3.148,0,0,1,2.907-2.752c1.275,0,1.818.855,1.818,2.146,0,.186-.03.388-.046.606Zm5.6.839c.047-.5.109-1,.109-1.477,0-1.8-.933-2.954-2.8-2.954-2.55,0-4.1,2.41-4.1,5.069a3.033,3.033,0,0,0,3.265,3.242,5.81,5.81,0,0,0,2.363-.427l.078-.949a5.592,5.592,0,0,1-2.316.529,2.248,2.248,0,0,1-2.41-2.394,4.252,4.252,0,0,1,.047-.638Zm-15.6,3.693h1.026l.777-3.771c.373-1.819,1.29-3.514,3-3.514a1.39,1.39,0,0,1,1.523,1.523,5.925,5.925,0,0,1-.171,1.384l-.9,4.377H235.4l.886-4.191a7.958,7.958,0,0,0,.233-1.633,2.239,2.239,0,0,0-2.487-2.3,3.088,3.088,0,0,0-2.519,1.384h-.031a7.815,7.815,0,0,0,.171-1.2h-.98c-.031.389-.093.731-.186,1.26Zm.055-11.36h-1.166l-.28,1.306h1.166Zm-3.5,11.36H226.7l1.679-7.938h-1.026Zm-4.469,0h1.026l1.523-7.1h1.959l.2-.84h-1.974l.124-.591c.264-1.259.544-2.488,1.71-2.488a1.827,1.827,0,0,1,.793.156l.233-.824a2.9,2.9,0,0,0-1.088-.171c-1.85,0-2.332,1.757-2.627,3.125l-.171.793h-1.695l-.2.84h1.71Zm-11.419-4.533a3.148,3.148,0,0,1,2.907-2.752c1.275,0,1.819.855,1.819,2.146,0,.186-.031.388-.047.606Zm5.6.839c.047-.5.109-1,.109-1.477,0-1.8-.933-2.954-2.8-2.954-2.55,0-4.1,2.41-4.1,5.069a3.033,3.033,0,0,0,3.265,3.242,5.809,5.809,0,0,0,2.363-.427l.078-.949a5.592,5.592,0,0,1-2.317.529,2.248,2.248,0,0,1-2.41-2.394,4.252,4.252,0,0,1,.047-.638Zm-15.6,3.693h1.026l.855-3.9c.358-1.679,1.213-3.39,2.923-3.39a1.39,1.39,0,0,1,1.523,1.523,5.925,5.925,0,0,1-.171,1.384l-.9,4.377h1.026l.887-4.191a7.3,7.3,0,0,0,.232-1.633,2.239,2.239,0,0,0-2.487-2.3,2.828,2.828,0,0,0-2.534,1.477h-.031l1.182-5.023h-1.026Zm-2.884-7.938h-1.554l-.218.84h1.586l-.762,3.514a13.63,13.63,0,0,0-.358,2.286c0,.855.622,1.485,1.726,1.485a2.092,2.092,0,0,0,.995-.225l.094-.84a1.655,1.655,0,0,1-.84.217.845.845,0,0,1-.9-.964,7.844,7.844,0,0,1,.233-1.554l.839-3.919h2.036l.2-.84h-2.068l.482-2.161-1.119.389Zm-7.284,4.276h3.964l.171-1.073h-3.964Z" transform="translate(-2.298 -57.972)" fill="none" stroke="#383336" stroke-miterlimit="2.613" stroke-width="0.5"/>
  </g>
</svg>
